<svg id="Capa_1" enable-background="new 0 0 512 512" height="512" viewBox="0 0 512 512" width="512" xmlns="http://www.w3.org/2000/svg"><g><path d="m499.551 154.274h-27.703l-14.433-66.484c-.748-3.449-3.8-5.909-7.329-5.909h-44.734l-61.038-30.601c-1.847-.928-3.995-1.05-5.935-.341l-33.32 12.172-36.517-50.519c-1.234-1.709-3.132-2.818-5.227-3.058-2.094-.243-4.193.413-5.782 1.8l-37.721 32.911h-8.608c-4.143 0-7.5 3.357-7.5 7.5s3.357 7.5 7.5 7.5h11.42c1.812 0 3.564-.656 4.931-1.849l33.646-29.355 35.024 48.454c1.965 2.72 5.5 3.803 8.651 2.651l35.607-13.008 59.73 29.946c1.043.522 2.194.795 3.361.795h40.462l12.46 57.394h-402.446l26.328-51.357h67.753c2.836 0 5.43-1.6 6.702-4.134l19.857-39.537h6.527c4.143 0 7.5-3.357 7.5-7.5s-3.357-7.5-7.5-7.5h-11.153c-2.836 0-5.43 1.6-6.702 4.134l-19.857 39.537h-67.71c-2.813 0-5.391 1.575-6.674 4.078l-31.927 62.279h-24.745c-6.864.001-12.449 5.586-12.449 12.45v23.554c0 6.864 5.585 12.449 12.449 12.449h13.516l47.846 196.807c1.835 7.549 8.542 12.82 16.311 12.82h4.265v20.699c0 8.118 6.605 14.723 14.724 14.723h10.326c.529 4.365 1.517 8.665 2.964 12.849 1.354 3.913 5.624 5.989 9.54 4.636 3.914-1.354 5.99-5.625 4.636-9.54-1.723-4.98-2.597-10.177-2.597-15.444 0-26.048 21.191-47.239 47.239-47.239 26.049 0 47.24 21.191 47.24 47.239s-21.191 47.239-47.24 47.239c-10.916 0-21.172-3.624-29.657-10.481-3.223-2.604-7.944-2.102-10.548 1.12-2.603 3.222-2.102 7.944 1.12 10.548 11.024 8.907 24.905 13.813 39.085 13.813 31.78 0 58.055-23.947 61.772-54.739h26.021c3.718 30.793 29.993 54.74 61.771 54.74s58.054-23.947 61.771-54.74h10.338c8.118 0 14.723-6.604 14.723-14.723v-20.699h4.266c7.768 0 14.475-5.271 16.31-12.82l8.114-33.375c.979-4.024-1.491-8.081-5.517-9.06-4.021-.977-8.081 1.492-9.06 5.517l-8.114 33.375c-.194.803-.908 1.363-1.733 1.363h-11.766-34.325c-11.342-11.888-27.318-19.317-45.007-19.317s-33.665 7.43-45.007 19.317h-59.55c-11.342-11.888-27.318-19.317-45.007-19.317-17.688 0-33.664 7.43-45.007 19.317h-34.325-11.766c-.826 0-1.54-.561-1.734-1.363l-3.05-12.545h3.583c4.143 0 7.5-3.357 7.5-7.5s-3.357-7.5-7.5-7.5h-7.23l-12.216-50.25h19.446c4.143 0 7.5-3.357 7.5-7.5s-3.357-7.5-7.5-7.5h-23.093l-14.507-59.675h82.367c4.143 0 7.5-3.357 7.5-7.5s-3.357-7.5-7.5-7.5h-86.014l-6.271-25.795h429.196l-17.782 73.141h-83.686c-4.143 0-7.5 3.357-7.5 7.5s3.357 7.5 7.5 7.5h80.04l-10.153 41.761c-.979 4.024 1.491 8.081 5.517 9.06 4.02.977 8.08-1.491 9.06-5.517l32.442-133.444h13.515c6.864 0 12.449-5.585 12.449-12.449v-23.554c0-6.865-5.585-12.45-12.449-12.45zm-96.937 258.079v20.422h-10.061c-.877-7.264-3.007-14.145-6.173-20.422zm-71.832-19.317c26.048 0 47.239 21.191 47.239 47.239 0 26.049-21.191 47.24-47.239 47.24s-47.239-21.191-47.239-47.24c0-26.048 21.191-47.239 47.239-47.239zm-55.598 19.317c-3.166 6.277-5.296 13.157-6.173 20.422h-26.021c-.877-7.264-3.007-14.145-6.173-20.422zm-149.565 0c-3.166 6.277-5.296 13.157-6.173 20.422h-10.061v-20.422zm371.381-224.627c-60.062 0-443.411 0-482 0v-18.452h482z"/><path d="m213.5 236.021c0-4.143-3.357-7.5-7.5-7.5h-41.962c-4.143 0-7.5 3.357-7.5 7.5s3.357 7.5 7.5 7.5h41.962c4.143 0 7.5-3.357 7.5-7.5z"/><path d="m122.231 303.195c-4.143 0-7.5 3.357-7.5 7.5s3.357 7.5 7.5 7.5h63.664c4.143 0 7.5-3.357 7.5-7.5s-3.357-7.5-7.5-7.5z"/><path d="m287.312 370.032h63.638c4.143 0 7.5-3.357 7.5-7.5s-3.357-7.5-7.5-7.5h-63.638c-4.143 0-7.5 3.357-7.5 7.5s3.358 7.5 7.5 7.5z"/><path d="m390.114 250.536c4.143 0 7.5-3.357 7.5-7.5s-3.357-7.5-7.5-7.5h-39.174c-4.143 0-7.5 3.357-7.5 7.5s3.357 7.5 7.5 7.5z"/><path d="m412.614 322.949c0-4.143-3.357-7.5-7.5-7.5h-78.579c-4.143 0-7.5 3.357-7.5 7.5s3.357 7.5 7.5 7.5h78.579c4.143 0 7.5-3.358 7.5-7.5z"/><path d="m309.805 276.249c0-4.143-3.357-7.5-7.5-7.5h-79.68c-4.143 0-7.5 3.357-7.5 7.5s3.357 7.5 7.5 7.5h79.68c4.142 0 7.5-3.358 7.5-7.5z"/><path d="m188.718 441.761v-2.973c0-4.143-3.357-7.5-7.5-7.5s-7.5 3.357-7.5 7.5v2.973c0 4.143 3.357 7.5 7.5 7.5s7.5-3.357 7.5-7.5z"/><path d="m330.782 449.261c4.143 0 7.5-3.357 7.5-7.5v-2.973c0-4.143-3.357-7.5-7.5-7.5s-7.5 3.357-7.5 7.5v2.973c0 4.143 3.358 7.5 7.5 7.5z"/><path d="m122.231 145.234c4.143 0 7.5-3.357 7.5-7.5v-11.655c0-3.141-1.957-5.949-4.904-7.036l-13.792-5.088c-3.887-1.436-8.199.555-9.632 4.44-1.434 3.886.555 8.198 4.44 9.632l8.888 3.279v6.428c0 4.142 3.358 7.5 7.5 7.5z"/><path d="m202.292 90.345 20.292 11.543c1.556.884 3.42 1.205 5.249.82l27.498-5.771c4.054-.851 6.65-4.826 5.799-8.881-.85-4.054-4.824-6.652-8.881-5.799l-24.718 5.188-17.823-10.139c-3.599-2.046-8.179-.789-10.228 2.812-2.047 3.599-.789 8.178 2.812 10.227z"/><path d="m355.697 136.862h29.824c4.143 0 7.5-3.357 7.5-7.5s-3.357-7.5-7.5-7.5h-25.233l-13.1-25.651c-1.884-3.688-6.402-5.152-10.091-3.269-3.688 1.885-5.152 6.402-3.269 10.091l15.188 29.74c1.284 2.51 3.864 4.089 6.681 4.089z"/><path d="m255.357 131.756c1.321 3.92 5.573 6.037 9.502 4.713l24.848-8.371c3.926-1.322 6.035-5.576 4.713-9.502-1.322-3.925-5.578-6.038-9.502-4.713l-24.848 8.371c-3.925 1.323-6.035 5.577-4.713 9.502z"/></g></svg>